<?xml version="1.0" encoding="utf-8"?>
<!-- Generator: Adobe Illustrator 24.3.0, SVG Export Plug-In . SVG Version: 6.00 Build 0)  -->
<svg version="1.1" id="Layer_1" xmlns="http://www.w3.org/2000/svg" xmlns:xlink="http://www.w3.org/1999/xlink" x="0px" y="0px"
	 viewBox="0 0 160 160" style="enable-background:new 0 0 160 160;" xml:space="preserve">
<style type="text/css">
	.st0{fill:#F2FFD9;}
	.st1{fill:#10162F;}
	.st2{fill:#FFFFFF;filter:url(#Adobe_OpacityMaskFilter);}
	.st3{mask:url(#mask0_1_);}
	.st4{fill-rule:evenodd;clip-rule:evenodd;fill:#FFFFFF;}
	.st5{fill-rule:evenodd;clip-rule:evenodd;fill:#FFFFFF;filter:url(#Adobe_OpacityMaskFilter_1_);}
	.st6{mask:url(#path-3-inside-1_2_);}
	.st7{fill:#FFFFFF;filter:url(#Adobe_OpacityMaskFilter_2_);stroke:#10162F;}
	.st8{mask:url(#mask1_1_);}
	.st9{fill:#FFFFFF;}
	.st10{fill-rule:evenodd;clip-rule:evenodd;fill:#FFFFFF;filter:url(#Adobe_OpacityMaskFilter_3_);}
	.st11{mask:url(#path-13-inside-2_2_);}
	.st12{fill:#FFFFFF;filter:url(#Adobe_OpacityMaskFilter_4_);stroke:#10162F;}
	.st13{mask:url(#mask2_1_);}
	.st14{fill-rule:evenodd;clip-rule:evenodd;fill:#FFFFFF;filter:url(#Adobe_OpacityMaskFilter_5_);}
	.st15{mask:url(#path-20-inside-3_2_);}
	.st16{fill:#FFFFFF;filter:url(#Adobe_OpacityMaskFilter_6_);stroke:#10162F;}
	.st17{mask:url(#mask3_1_);}
	.st18{fill-rule:evenodd;clip-rule:evenodd;fill:#FFFFFF;filter:url(#Adobe_OpacityMaskFilter_7_);}
	.st19{mask:url(#path-26-inside-4_2_);}
	.st20{fill:none;}
	.st21{fill:#FFFFFF;filter:url(#Adobe_OpacityMaskFilter_8_);stroke:#10162F;}
	.st22{mask:url(#mask4_1_);}
	.st23{fill-rule:evenodd;clip-rule:evenodd;fill:#FFFFFF;filter:url(#Adobe_OpacityMaskFilter_9_);}
	.st24{mask:url(#path-33-inside-5_2_);}
	.st25{fill:#FFFFFF;filter:url(#Adobe_OpacityMaskFilter_10_);stroke:#10162F;}
	.st26{mask:url(#mask5_1_);}
	.st27{fill-rule:evenodd;clip-rule:evenodd;fill:#FFFFFF;filter:url(#Adobe_OpacityMaskFilter_11_);}
	.st28{mask:url(#path-41-inside-6_2_);}
</style>
<g>
	<rect x="110.3" y="0.5" class="st0" width="48.4" height="48.4"/>
	<path class="st1" d="M159.3,49.4h-49.4V0h49.4V49.4z M110.8,48.4h47.4V1h-47.4V48.4z"/>
</g>
<defs>
	<filter id="Adobe_OpacityMaskFilter" filterUnits="userSpaceOnUse" x="91.6" y="25.2" width="106.1" height="52.8">
		<feColorMatrix  type="matrix" values="1 0 0 0 0  0 1 0 0 0  0 0 1 0 0  0 0 0 1 0"/>
	</filter>
</defs>
<mask maskUnits="userSpaceOnUse" x="91.6" y="25.2" width="106.1" height="52.8" id="mask0_1_">
	<rect x="109.8" class="st2" width="49.4" height="49.4"/>
</mask>
<g class="st3">
	<g>
		<path class="st4" d="M196.2,68.8c2,4.2-1.8,8.2-6.4,8.2H99.6c-4.6,0-8.4-4-6.4-8.2c2.1-4.4,5.6-8.1,10-10.3
			c2.8-1.4,5.2-3.9,6.2-6.9c4.9-14.8,18.8-25.4,35.3-25.4c16.4,0,30.4,10.7,35.3,25.4c1,3,3.4,5.4,6.2,6.9
			C190.5,60.8,194.1,64.4,196.2,68.8z"/>
	</g>
	<defs>
		<filter id="Adobe_OpacityMaskFilter_1_" filterUnits="userSpaceOnUse" x="91.6" y="25.2" width="106.1" height="52.8">
			<feColorMatrix  type="matrix" values="1 0 0 0 0  0 1 0 0 0  0 0 1 0 0  0 0 0 1 0"/>
		</filter>
	</defs>
	<mask maskUnits="userSpaceOnUse" x="91.6" y="25.2" width="106.1" height="52.8" id="path-3-inside-1_2_">
		<path class="st5" d="M196.2,68.8c2,4.2-1.8,8.2-6.4,8.2H99.6c-4.6,0-8.4-4-6.4-8.2c2.1-4.4,5.6-8.1,10-10.3
			c2.8-1.4,5.2-3.9,6.2-6.9c4.9-14.8,18.8-25.4,35.3-25.4c16.4,0,30.4,10.7,35.3,25.4c1,3,3.4,5.4,6.2,6.9
			C190.5,60.8,194.1,64.4,196.2,68.8z"/>
	</mask>
	<g class="st6">
		<path class="st1" d="M186.1,58.6l0.5-0.9L186.1,58.6z M103.2,58.6l0.5,0.9L103.2,58.6z M109.4,51.7l0.9,0.3L109.4,51.7z
			 M93.2,68.8l-0.9-0.4L93.2,68.8z M189.8,78H99.6v-2h90.2V78z M92.3,68.4c2.2-4.6,5.9-8.4,10.5-10.7l0.9,1.8
			c-4.2,2.1-7.6,5.6-9.6,9.8L92.3,68.4z M108.4,51.4c5-15.2,19.4-26.1,36.2-26.1v2c-16,0-29.6,10.4-34.3,24.8L108.4,51.4z
			 M144.7,25.2c16.9,0,31.2,11,36.2,26.1L179,52c-4.8-14.4-18.3-24.8-34.3-24.8V25.2z M186.6,57.7c4.6,2.3,8.3,6.1,10.5,10.7
			l-1.8,0.9c-2-4.2-5.4-7.7-9.6-9.8L186.6,57.7z M180.9,51.4c0.9,2.7,3.1,5,5.7,6.3l-0.9,1.8c-3-1.5-5.6-4.1-6.7-7.5L180.9,51.4z
			 M102.7,57.7c2.6-1.3,4.8-3.6,5.7-6.3l1.9,0.6c-1.1,3.3-3.7,5.9-6.7,7.5L102.7,57.7z M99.6,78c-2.6,0-5-1.1-6.4-2.9
			c-1.5-1.8-2-4.2-0.9-6.7l1.8,0.9c-0.8,1.7-0.5,3.3,0.6,4.6c1.1,1.3,2.9,2.2,4.9,2.2V78z M189.8,76c2,0,3.8-0.9,4.9-2.2
			c1-1.3,1.4-2.9,0.6-4.6l1.8-0.9c1.2,2.5,0.6,4.9-0.9,6.7c-1.5,1.8-3.8,2.9-6.4,2.9V76z"/>
	</g>
	<g>
		<path class="st1" d="M142.8,56.5h-23.9l0-0.5c0.3-13,10.5-23.4,23.4-23.7l0.5,0V56.5z M119.9,55.5h21.9V33.3
			C129.9,33.8,120.4,43.4,119.9,55.5z"/>
	</g>
	<g>
		<path class="st1" d="M170.7,56.5h-23.9V32.3l0.5,0c12.8,0.3,23.1,10.7,23.4,23.7L170.7,56.5z M147.8,55.5h21.9
			c-0.5-12.1-10-21.7-21.9-22.2V55.5z"/>
	</g>
</g>
<g>
	<path class="st1" d="M159.3,49.4h-49.4V0h49.4V49.4z M110.8,48.4h47.4V1h-47.4V48.4z"/>
</g>
<g>
	<path class="st1" d="M50.4,49.4H1V0h49.4V49.4z M2,48.4h47.4V1H2V48.4z"/>
</g>
<g>
	<path class="st1" d="M104.8,49.4H55.4V0h49.4V49.4z M56.4,48.4h47.4V1H56.4V48.4z"/>
</g>
<defs>
	<filter id="Adobe_OpacityMaskFilter_2_" filterUnits="userSpaceOnUse" x="55.6" y="28.7" width="139.5" height="75.8">
		<feColorMatrix  type="matrix" values="1 0 0 0 0  0 1 0 0 0  0 0 1 0 0  0 0 0 1 0"/>
	</filter>
</defs>
<mask maskUnits="userSpaceOnUse" x="55.6" y="28.7" width="139.5" height="75.8" id="mask1_1_">
	<rect x="55.9" y="55.8" class="st7" width="48.4" height="48.4"/>
</mask>
<g class="st8">
	<g>
		<rect x="55.6" y="55.1" class="st0" width="49.4" height="49.4"/>
	</g>
	<g>
		<path class="st9" d="M95.9,68.7h-4.4c-1.9,0-3.4,1.5-3.4,3.4l0,0c0,1.9,1.5,3.4,3.4,3.4h4.4c1.9,0,3.4-1.5,3.4-3.4l0,0
			C99.3,70.2,97.8,68.7,95.9,68.7z"/>
		<path class="st1" d="M95.9,76.1h-4.4c-2.2,0-3.9-1.8-3.9-3.9s1.8-3.9,3.9-3.9h4.4c2.2,0,3.9,1.8,3.9,3.9S98,76.1,95.9,76.1z
			 M91.5,69.2c-1.6,0-2.9,1.3-2.9,2.9c0,1.6,1.3,2.9,2.9,2.9h4.4c1.6,0,2.9-1.3,2.9-2.9c0-1.6-1.3-2.9-2.9-2.9H91.5z"/>
	</g>
	<g>
		<path class="st4" d="M193.5,72.3c2,4.2-1.8,8.2-6.4,8.2H96.9c-4.6,0-8.4-4-6.4-8.2c2.1-4.4,5.6-8.1,10-10.3
			c2.8-1.4,5.2-3.9,6.2-6.9c4.9-14.8,18.8-25.4,35.3-25.4c16.4,0,30.4,10.7,35.3,25.4c1,3,3.4,5.4,6.2,6.9
			C187.9,64.3,191.4,67.9,193.5,72.3z"/>
	</g>
	<defs>
		<filter id="Adobe_OpacityMaskFilter_3_" filterUnits="userSpaceOnUse" x="89" y="28.7" width="106.1" height="52.8">
			<feColorMatrix  type="matrix" values="1 0 0 0 0  0 1 0 0 0  0 0 1 0 0  0 0 0 1 0"/>
		</filter>
	</defs>
	<mask maskUnits="userSpaceOnUse" x="89" y="28.7" width="106.1" height="52.8" id="path-13-inside-2_2_">
		<path class="st10" d="M193.5,72.3c2,4.2-1.8,8.2-6.4,8.2H96.9c-4.6,0-8.4-4-6.4-8.2c2.1-4.4,5.6-8.1,10-10.3
			c2.8-1.4,5.2-3.9,6.2-6.9c4.9-14.8,18.8-25.4,35.3-25.4c16.4,0,30.4,10.7,35.3,25.4c1,3,3.4,5.4,6.2,6.9
			C187.9,64.3,191.4,67.9,193.5,72.3z"/>
	</mask>
	<g class="st11">
		<path class="st1" d="M100.6,62l0.5,0.9L100.6,62z M106.8,55.2l0.9,0.3L106.8,55.2z M90.5,72.3l-0.9-0.4L90.5,72.3z M187.1,81.5
			H96.9v-2h90.2V81.5z M89.6,71.9c2.2-4.6,5.9-8.4,10.5-10.7l0.9,1.8c-4.2,2.1-7.6,5.6-9.6,9.8L89.6,71.9z M105.8,54.9
			c5-15.2,19.3-26.1,36.2-26.1v2c-16,0-29.6,10.4-34.3,24.8L105.8,54.9z M142,28.7c16.9,0,31.2,11,36.2,26.1l-1.9,0.6
			C171.6,41.1,158,30.7,142,30.7V28.7z M184,61.2c4.6,2.3,8.3,6.1,10.5,10.7l-1.8,0.9c-2-4.2-5.4-7.7-9.6-9.8L184,61.2z M178.3,54.9
			c0.9,2.7,3.1,5,5.7,6.3l-0.9,1.8c-3-1.5-5.6-4.1-6.7-7.5L178.3,54.9z M100.1,61.2c2.7-1.3,4.8-3.6,5.7-6.3l1.9,0.6
			c-1.1,3.3-3.7,5.9-6.7,7.5L100.1,61.2z M96.9,81.5c-2.6,0-5-1.1-6.4-2.9c-1.5-1.8-2-4.2-0.9-6.7l1.8,0.9c-0.8,1.7-0.5,3.3,0.6,4.6
			c1.1,1.3,2.9,2.2,4.9,2.2V81.5z M187.1,79.5c2,0,3.8-0.9,4.9-2.2c1-1.3,1.4-2.9,0.6-4.6l1.8-0.9c1.2,2.5,0.6,4.9-0.9,6.7
			c-1.5,1.8-3.9,2.9-6.4,2.9V79.5z"/>
	</g>
	<g>
		<circle class="st1" cx="113.4" cy="82.7" r="12.1"/>
		<path class="st1" d="M113.4,95.3c-7,0-12.6-5.7-12.6-12.6c0-7,5.7-12.6,12.6-12.6S126,75.7,126,82.7
			C126,89.6,120.4,95.3,113.4,95.3z M113.4,71.1c-6.4,0-11.6,5.2-11.6,11.6c0,6.4,5.2,11.6,11.6,11.6S125,89.1,125,82.7
			C125,76.3,119.8,71.1,113.4,71.1z"/>
	</g>
</g>
<g>
	<path class="st1" d="M104.8,104.7H55.4V55.3h49.4V104.7z M56.4,103.7h47.4V56.3H56.4V103.7z"/>
</g>
<defs>
	<filter id="Adobe_OpacityMaskFilter_4_" filterUnits="userSpaceOnUse" x="-34.8" y="84.7" width="139.9" height="75.3">
		<feColorMatrix  type="matrix" values="1 0 0 0 0  0 1 0 0 0  0 0 1 0 0  0 0 0 1 0"/>
	</filter>
</defs>
<mask maskUnits="userSpaceOnUse" x="-34.8" y="84.7" width="139.9" height="75.3" id="mask2_1_">
	<rect x="55.9" y="111.1" class="st12" width="48.4" height="48.4"/>
</mask>
<g class="st13">
	<g>
		<rect x="55.2" y="110.2" class="st0" width="49.8" height="49.8"/>
	</g>
	<g>
		<path class="st9" d="M64,125.5h5.2c1.7,0,3,1.3,3,3l0,0c0,1.7-1.3,3-3,3H64c-1.7,0-3-1.3-3-3l0,0C61,126.9,62.3,125.5,64,125.5z"
			/>
		<path class="st1" d="M69.2,132H64c-1.9,0-3.5-1.6-3.5-3.5S62,125,64,125h5.2c1.9,0,3.5,1.6,3.5,3.5S71.1,132,69.2,132z M64,126
			c-1.4,0-2.5,1.1-2.5,2.5s1.1,2.5,2.5,2.5h5.2c1.4,0,2.5-1.1,2.5-2.5s-1.1-2.5-2.5-2.5H64z"/>
	</g>
	<g>
		<path class="st4" d="M-33.3,128.3c-2,4.2,1.8,8.2,6.4,8.2h90.2c4.6,0,8.4-4,6.4-8.2c-2.1-4.4-5.6-8.1-10-10.3
			c-2.8-1.4-5.2-3.9-6.2-6.9c-4.9-14.8-18.8-25.4-35.3-25.4c-16.4,0-30.4,10.7-35.3,25.4c-1,3-3.4,5.4-6.2,6.9
			C-27.6,120.2-31.2,123.8-33.3,128.3z"/>
	</g>
	<defs>
		<filter id="Adobe_OpacityMaskFilter_5_" filterUnits="userSpaceOnUse" x="-34.8" y="84.7" width="106.1" height="52.8">
			<feColorMatrix  type="matrix" values="1 0 0 0 0  0 1 0 0 0  0 0 1 0 0  0 0 0 1 0"/>
		</filter>
	</defs>
	<mask maskUnits="userSpaceOnUse" x="-34.8" y="84.7" width="106.1" height="52.8" id="path-20-inside-3_2_">
		<path class="st14" d="M-33.3,128.3c-2,4.2,1.8,8.2,6.4,8.2h90.2c4.6,0,8.4-4,6.4-8.2c-2.1-4.4-5.6-8.1-10-10.3
			c-2.8-1.4-5.2-3.9-6.2-6.9c-4.9-14.8-18.8-25.4-35.3-25.4c-16.4,0-30.4,10.7-35.3,25.4c-1,3-3.4,5.4-6.2,6.9
			C-27.6,120.2-31.2,123.8-33.3,128.3z"/>
	</mask>
	<g class="st15">
		<path class="st1" d="M-17.1,111.1l-0.9-0.3L-17.1,111.1z M-23.3,118l-0.5-0.9L-23.3,118z M59.7,118l-0.5,0.9L59.7,118z
			 M53.5,111.1l-0.9,0.3L53.5,111.1z M69.7,128.3l-0.9,0.4L69.7,128.3z M-26.9,137.5h90.2v-2h-90.2V137.5z M70.6,127.9
			c-2.2-4.6-5.9-8.4-10.5-10.7l-0.9,1.8c4.2,2.1,7.6,5.6,9.6,9.8L70.6,127.9z M54.4,110.8c-5-15.2-19.4-26.1-36.2-26.1v2
			c16,0,29.6,10.4,34.3,24.8L54.4,110.8z M18.2,84.7c-16.9,0-31.2,11-36.2,26.1l1.9,0.6c4.8-14.4,18.3-24.8,34.3-24.8V84.7z
			 M-23.7,117.1c-4.6,2.3-8.3,6.1-10.5,10.7l1.8,0.9c2-4.2,5.4-7.7,9.6-9.8L-23.7,117.1z M-18,110.8c-0.9,2.7-3.1,5-5.7,6.3l0.9,1.8
			c3-1.5,5.6-4.1,6.7-7.5L-18,110.8z M60.1,117.1c-2.6-1.3-4.8-3.6-5.7-6.3l-1.9,0.6c1.1,3.3,3.7,5.9,6.7,7.5L60.1,117.1z
			 M63.3,137.5c2.6,0,5-1.1,6.4-2.9c1.5-1.8,2-4.2,0.9-6.7l-1.8,0.9c0.8,1.7,0.5,3.3-0.6,4.6c-1.1,1.3-2.9,2.2-4.9,2.2V137.5z
			 M-26.9,135.5c-2,0-3.8-0.9-4.9-2.2c-1-1.3-1.4-2.9-0.6-4.6l-1.8-0.9c-1.2,2.5-0.6,4.9,0.9,6.7c1.5,1.8,3.8,2.9,6.4,2.9V135.5z"/>
	</g>
	<g>
		<circle class="st1" cx="46.8" cy="138.6" r="12.1"/>
		<path class="st1" d="M46.8,151.3c-7,0-12.6-5.7-12.6-12.6S39.9,126,46.8,126s12.6,5.7,12.6,12.6S53.8,151.3,46.8,151.3z M46.8,127
			c-6.4,0-11.6,5.2-11.6,11.6c0,6.4,5.2,11.6,11.6,11.6s11.6-5.2,11.6-11.6C58.4,132.2,53.2,127,46.8,127z"/>
	</g>
</g>
<g>
	<path class="st1" d="M104.8,160H55.4v-49.4h49.4V160z M56.4,159h47.4v-47.4H56.4V159z"/>
</g>
<defs>
	<filter id="Adobe_OpacityMaskFilter_6_" filterUnits="userSpaceOnUse" x="-37.4" y="55.1" width="106.1" height="78.9">
		<feColorMatrix  type="matrix" values="1 0 0 0 0  0 1 0 0 0  0 0 1 0 0  0 0 0 1 0"/>
	</filter>
</defs>
<mask maskUnits="userSpaceOnUse" x="-37.4" y="55.1" width="106.1" height="78.9" id="mask3_1_">
	<rect x="1.5" y="55.8" class="st16" width="48.4" height="48.4"/>
</mask>
<g class="st17">
	<g>
		<rect x="1" y="55.1" class="st0" width="49.8" height="49.8"/>
	</g>
	<g>
		<path class="st4" d="M-35.9,124.8c-2,4.2,1.8,8.2,6.4,8.2h90.2c4.6,0,8.4-4,6.4-8.2c-2.1-4.4-5.6-8.1-10-10.3
			c-2.8-1.4-5.2-3.9-6.2-6.9C46,92.8,32,82.2,15.6,82.2s-30.4,10.7-35.3,25.4c-1,3-3.4,5.4-6.2,6.9
			C-30.3,116.7-33.8,120.4-35.9,124.8z"/>
	</g>
	<defs>
		<filter id="Adobe_OpacityMaskFilter_7_" filterUnits="userSpaceOnUse" x="-37.4" y="81.2" width="106.1" height="52.8">
			<feColorMatrix  type="matrix" values="1 0 0 0 0  0 1 0 0 0  0 0 1 0 0  0 0 0 1 0"/>
		</filter>
	</defs>
	<mask maskUnits="userSpaceOnUse" x="-37.4" y="81.2" width="106.1" height="52.8" id="path-26-inside-4_2_">
		<path class="st18" d="M-35.9,124.8c-2,4.2,1.8,8.2,6.4,8.2h90.2c4.6,0,8.4-4,6.4-8.2c-2.1-4.4-5.6-8.1-10-10.3
			c-2.8-1.4-5.2-3.9-6.2-6.9C46,92.8,32,82.2,15.6,82.2s-30.4,10.7-35.3,25.4c-1,3-3.4,5.4-6.2,6.9
			C-30.3,116.7-33.8,120.4-35.9,124.8z"/>
	</mask>
	<g class="st19">
		<path class="st1" d="M50.9,107.6l0.9-0.3L50.9,107.6z M-29.5,134h90.2v-2h-90.2V134z M68,124.4c-2.2-4.6-5.9-8.4-10.5-10.7
			l-0.9,1.8c4.2,2.1,7.6,5.6,9.6,9.8L68,124.4z M51.8,107.3c-5-15.2-19.4-26.1-36.2-26.1v2c16,0,29.6,10.4,34.3,24.8L51.8,107.3z
			 M15.6,81.2c-16.9,0-31.2,11-36.2,26.1l1.9,0.6C-14,93.6-0.4,83.2,15.6,83.2V81.2z M-26.3,113.6c-4.6,2.3-8.3,6.1-10.5,10.7
			l1.8,0.9c2-4.2,5.4-7.7,9.6-9.8L-26.3,113.6z M-20.6,107.3c-0.9,2.7-3.1,5-5.7,6.3l0.9,1.8c3-1.5,5.6-4.1,6.7-7.5L-20.6,107.3z
			 M57.5,113.6c-2.6-1.3-4.8-3.6-5.7-6.3l-1.9,0.6c1.1,3.3,3.7,5.9,6.7,7.5L57.5,113.6z M60.7,134c2.6,0,5-1.1,6.4-2.9
			c1.5-1.8,2-4.2,0.9-6.7l-1.8,0.9c0.8,1.7,0.5,3.3-0.6,4.6c-1.1,1.3-2.9,2.2-4.9,2.2V134z M-29.5,132c-2,0-3.8-0.9-4.9-2.2
			c-1-1.3-1.4-2.9-0.6-4.6l-1.8-0.9c-1.2,2.5-0.6,4.9,0.9,6.7c1.5,1.8,3.9,2.9,6.4,2.9V132z"/>
	</g>
	<g>
		<path class="st20" d="M18,88.7C30.5,89,40.6,99.2,40.8,112H18V88.7z"/>
	</g>
	<g>
		<path class="st9" d="M18,88.7C30.5,89,40.6,99.2,40.8,112H18V88.7z"/>
	</g>
	<g>
		<path class="st1" d="M41.4,112.5H17.5V88.2l0.5,0c12.8,0.3,23.1,10.7,23.4,23.7L41.4,112.5z M18.5,111.5h21.9
			c-0.5-12.1-10-21.7-21.9-22.2V111.5z"/>
	</g>
	<g>
		<path class="st20" d="M12.9,88.7C0.4,89-9.7,99.2-9.9,112h22.9V88.7z"/>
	</g>
	<g>
		<path class="st9" d="M12.9,88.7C0.4,89-9.7,99.2-9.9,112h22.9V88.7z"/>
	</g>
	<g>
		<path class="st1" d="M13.4,112.5h-23.9l0-0.5c0.3-13,10.5-23.4,23.4-23.7l0.5,0V112.5z M-9.4,111.5h21.9V89.3
			C0.6,89.8-8.9,99.4-9.4,111.5z"/>
	</g>
</g>
<g>
	<path class="st1" d="M50.4,104.7H1V55.3h49.4V104.7z M2,103.7h47.4V56.3H2V103.7z"/>
</g>
<defs>
	<filter id="Adobe_OpacityMaskFilter_8_" filterUnits="userSpaceOnUse" x="-37.4" y="84.3" width="106.1" height="75.3">
		<feColorMatrix  type="matrix" values="1 0 0 0 0  0 1 0 0 0  0 0 1 0 0  0 0 0 1 0"/>
	</filter>
</defs>
<mask maskUnits="userSpaceOnUse" x="-37.4" y="84.3" width="106.1" height="75.3" id="mask4_1_">
	<rect x="1.5" y="110.7" class="st21" width="48.4" height="48.4"/>
</mask>
<g class="st22">
	<g>
		<rect x="0.1" y="109.8" class="st0" width="50.7" height="49.8"/>
	</g>
	<g>
		<path class="st4" d="M-35.9,127.9c-2,4.2,1.8,8.2,6.4,8.2h90.2c4.6,0,8.4-4,6.4-8.2c-2.1-4.4-5.6-8.1-10-10.3
			c-2.8-1.4-5.2-3.9-6.2-6.9C46,95.9,32,85.3,15.6,85.3c-16.4,0-30.4,10.7-35.3,25.4c-1,3-3.4,5.4-6.2,6.9
			C-30.3,119.8-33.8,123.4-35.9,127.9z"/>
	</g>
	<defs>
		<filter id="Adobe_OpacityMaskFilter_9_" filterUnits="userSpaceOnUse" x="-37.4" y="84.3" width="106.1" height="52.8">
			<feColorMatrix  type="matrix" values="1 0 0 0 0  0 1 0 0 0  0 0 1 0 0  0 0 0 1 0"/>
		</filter>
	</defs>
	<mask maskUnits="userSpaceOnUse" x="-37.4" y="84.3" width="106.1" height="52.8" id="path-33-inside-5_2_">
		<path class="st23" d="M-35.9,127.9c-2,4.2,1.8,8.2,6.4,8.2h90.2c4.6,0,8.4-4,6.4-8.2c-2.1-4.4-5.6-8.1-10-10.3
			c-2.8-1.4-5.2-3.9-6.2-6.9C46,95.9,32,85.3,15.6,85.3c-16.4,0-30.4,10.7-35.3,25.4c-1,3-3.4,5.4-6.2,6.9
			C-30.3,119.8-33.8,123.4-35.9,127.9z"/>
	</mask>
	<g class="st24">
		<path class="st1" d="M-19.7,110.7l-0.9-0.3L-19.7,110.7z M50.9,110.7l-0.9,0.3L50.9,110.7z M67.1,127.9l-0.9,0.4L67.1,127.9z
			 M-29.5,137.1h90.2v-2h-90.2V137.1z M68,127.5c-2.2-4.6-5.9-8.4-10.5-10.7l-0.9,1.8c4.2,2.1,7.6,5.6,9.6,9.8L68,127.5z
			 M51.8,110.4c-5-15.2-19.4-26.1-36.2-26.1v2c16,0,29.6,10.4,34.3,24.8L51.8,110.4z M15.6,84.3c-16.9,0-31.2,11-36.2,26.1l1.9,0.6
			C-14,96.7-0.4,86.3,15.6,86.3V84.3z M-26.3,116.7c-4.6,2.3-8.3,6.1-10.5,10.7l1.8,0.9c2-4.2,5.4-7.7,9.6-9.8L-26.3,116.7z
			 M-20.6,110.4c-0.9,2.7-3.1,5-5.7,6.3l0.9,1.8c3-1.5,5.6-4.1,6.7-7.5L-20.6,110.4z M57.5,116.7c-2.6-1.3-4.8-3.6-5.7-6.3l-1.9,0.6
			c1.1,3.3,3.7,5.9,6.7,7.5L57.5,116.7z M60.7,137.1c2.6,0,5-1.1,6.4-2.9c1.5-1.8,2-4.2,0.9-6.7l-1.8,0.9c0.8,1.7,0.5,3.3-0.6,4.6
			c-1.1,1.3-2.9,2.2-4.9,2.2V137.1z M-29.5,135.1c-2,0-3.8-0.9-4.9-2.2c-1-1.3-1.4-2.9-0.6-4.6l-1.8-0.9c-1.2,2.5-0.6,4.9,0.9,6.7
			c1.5,1.8,3.9,2.9,6.4,2.9V135.1z"/>
	</g>
	<g>
		<circle class="st1" cx="44.2" cy="138.2" r="12.1"/>
		<path class="st1" d="M44.2,150.9c-7,0-12.6-5.7-12.6-12.6s5.7-12.6,12.6-12.6s12.6,5.7,12.6,12.6S51.2,150.9,44.2,150.9z
			 M44.2,126.6c-6.4,0-11.6,5.2-11.6,11.6s5.2,11.6,11.6,11.6s11.6-5.2,11.6-11.6S50.6,126.6,44.2,126.6z"/>
	</g>
	<g>
		<path class="st1" d="M41.4,115.5H17.5V91.3l0.5,0C30.8,91.6,41.1,102,41.3,115L41.4,115.5z M18.5,114.5h21.9
			c-0.5-12.1-10-21.7-21.9-22.2V114.5z"/>
	</g>
	<g>
		<path class="st1" d="M13.4,115.5h-23.9l0-0.5c0.3-13,10.5-23.4,23.4-23.7l0.5,0V115.5z M-9.4,114.5h21.9V92.4
			C0.6,92.9-8.9,102.5-9.4,114.5z"/>
	</g>
</g>
<g>
	<path class="st1" d="M50.4,160H1v-49.4h49.4V160z M2,159h47.4v-47.4H2V159z"/>
</g>
<defs>
	<filter id="Adobe_OpacityMaskFilter_10_" filterUnits="userSpaceOnUse" x="91.6" y="28.7" width="106.1" height="75.8">
		<feColorMatrix  type="matrix" values="1 0 0 0 0  0 1 0 0 0  0 0 1 0 0  0 0 0 1 0"/>
	</filter>
</defs>
<mask maskUnits="userSpaceOnUse" x="91.6" y="28.7" width="106.1" height="75.8" id="mask5_1_">
	<rect x="110.3" y="55.8" class="st25" width="48.4" height="48.4"/>
</mask>
<g class="st26">
	<g>
		<rect x="109.8" y="55.1" class="st0" width="49.4" height="49.4"/>
	</g>
	<g>
		<path class="st4" d="M196.2,72.3c2,4.2-1.8,8.2-6.4,8.2H99.6c-4.6,0-8.4-4-6.4-8.2c2.1-4.4,5.6-8.1,10-10.3
			c2.8-1.4,5.2-3.9,6.2-6.9c4.9-14.8,18.8-25.4,35.3-25.4c16.4,0,30.4,10.7,35.3,25.4c1,3,3.4,5.4,6.2,6.9
			C190.5,64.3,194.1,67.9,196.2,72.3z"/>
	</g>
	<defs>
		<filter id="Adobe_OpacityMaskFilter_11_" filterUnits="userSpaceOnUse" x="91.6" y="28.7" width="106.1" height="52.8">
			<feColorMatrix  type="matrix" values="1 0 0 0 0  0 1 0 0 0  0 0 1 0 0  0 0 0 1 0"/>
		</filter>
	</defs>
	<mask maskUnits="userSpaceOnUse" x="91.6" y="28.7" width="106.1" height="52.8" id="path-41-inside-6_2_">
		<path class="st27" d="M196.2,72.3c2,4.2-1.8,8.2-6.4,8.2H99.6c-4.6,0-8.4-4-6.4-8.2c2.1-4.4,5.6-8.1,10-10.3
			c2.8-1.4,5.2-3.9,6.2-6.9c4.9-14.8,18.8-25.4,35.3-25.4c16.4,0,30.4,10.7,35.3,25.4c1,3,3.4,5.4,6.2,6.9
			C190.5,64.3,194.1,67.9,196.2,72.3z"/>
	</mask>
	<g class="st28">
		<path class="st1" d="M186.1,62l0.5-0.9L186.1,62z M103.2,62l0.5,0.9L103.2,62z M109.4,55.2l0.9,0.3L109.4,55.2z M93.2,72.3
			l-0.9-0.4L93.2,72.3z M189.8,81.5H99.6v-2h90.2V81.5z M92.3,71.9c2.2-4.6,5.9-8.4,10.5-10.7l0.9,1.8c-4.2,2.1-7.6,5.6-9.6,9.8
			L92.3,71.9z M108.4,54.9c5-15.2,19.4-26.1,36.2-26.1v2c-16,0-29.6,10.4-34.3,24.8L108.4,54.9z M144.7,28.7
			c16.9,0,31.2,11,36.2,26.1l-1.9,0.6c-4.8-14.4-18.3-24.8-34.3-24.8V28.7z M186.6,61.2c4.6,2.3,8.3,6.1,10.5,10.7l-1.8,0.9
			c-2-4.2-5.4-7.7-9.6-9.8L186.6,61.2z M180.9,54.9c0.9,2.7,3.1,5,5.7,6.3l-0.9,1.8c-3-1.5-5.6-4.1-6.7-7.5L180.9,54.9z M102.7,61.2
			c2.6-1.3,4.8-3.6,5.7-6.3l1.9,0.6c-1.1,3.3-3.7,5.9-6.7,7.5L102.7,61.2z M99.6,81.5c-2.6,0-5-1.1-6.4-2.9c-1.5-1.8-2-4.2-0.9-6.7
			l1.8,0.9c-0.8,1.7-0.5,3.3,0.6,4.6c1.1,1.3,2.9,2.2,4.9,2.2V81.5z M189.8,79.5c2,0,3.8-0.9,4.9-2.2c1-1.3,1.4-2.9,0.6-4.6l1.8-0.9
			c1.2,2.5,0.6,4.9-0.9,6.7c-1.5,1.8-3.8,2.9-6.4,2.9V79.5z"/>
	</g>
	<g>
		<circle class="st1" cx="116" cy="82.7" r="12.1"/>
		<path class="st1" d="M116,95.3c-7,0-12.6-5.7-12.6-12.6c0-7,5.7-12.6,12.6-12.6s12.6,5.7,12.6,12.6C128.7,89.6,123,95.3,116,95.3z
			 M116,71.1c-6.4,0-11.6,5.2-11.6,11.6c0,6.4,5.2,11.6,11.6,11.6s11.6-5.2,11.6-11.6C127.7,76.3,122.4,71.1,116,71.1z"/>
	</g>
	<g>
		<path class="st1" d="M142.8,60h-23.9l0-0.5c0.3-13,10.5-23.4,23.4-23.7l0.5,0V60z M119.9,59h21.9V36.8
			C129.9,37.3,120.4,46.9,119.9,59z"/>
	</g>
	<g>
		<path class="st1" d="M170.7,60h-23.9V35.8l0.5,0c12.8,0.3,23.1,10.7,23.4,23.7L170.7,60z M147.8,59h21.9
			c-0.5-12.1-10-21.7-21.9-22.2V59z"/>
	</g>
</g>
<g>
	<path class="st1" d="M159.3,104.7h-49.4V55.3h49.4V104.7z M110.8,103.7h47.4V56.3h-47.4V103.7z"/>
</g>
<g>
	<path class="st1" d="M159.3,160h-49.4v-49.4h49.4V160z M110.8,159h47.4v-47.4h-47.4V159z"/>
</g>
</svg>
